<svg width="108" height="154" viewBox="0 0 108 154" fill="none" xmlns="http://www.w3.org/2000/svg">
<g opacity="0.4">
<path d="M29.0275 87.1377L129.363 87.1377L129.363 85.9432L29.0275 85.9432L29.0275 87.1377Z" fill="#A30C33"/>
<path d="M134.14 91.9143L135.334 91.9143L135.334 99.0812C135.334 99.2603 135.274 99.3798 135.155 99.4992L98.6039 135.931C98.4845 136.05 98.365 136.11 98.1858 136.11L64.86 136.11L64.86 134.915L97.9469 134.915L134.14 98.8423L134.14 91.9143Z" fill="#A30C33"/>
<path d="M47.5401 31.5935L92.3329 31.5935C92.5121 31.5935 92.6315 31.6532 92.751 31.7726L135.155 74.1765C135.274 74.2959 135.334 74.4154 135.334 74.5945L135.334 80.5669L134.14 80.5669L134.14 74.8334L92.094 32.7879L47.5401 32.7879L47.5401 31.5935Z" fill="#A30C33"/>
<path d="M77.4037 69.8166L101.413 69.8166C101.592 69.8166 101.711 69.8764 101.831 69.9958L117.956 86.0018L117.12 86.8379L101.174 71.0111L77.4037 71.0111L77.4037 69.8166Z" fill="#A30C33"/>
<path d="M94.0056 86.062L94.8418 86.8982L78.7761 103.083C78.6567 103.203 78.5372 103.262 78.358 103.262L54.1102 103.262L54.1102 102.068L78.1192 102.068L94.0056 86.062Z" fill="#A30C33"/>
<path d="M2.75048 116.401L97.5917 116.401C97.7709 116.401 97.8903 116.461 98.0098 116.58L107.506 126.196L106.67 127.032L97.3528 117.596L2.75048 117.596L2.75048 116.401Z" fill="#A30C33"/>
<path d="M87.3182 135.095L88.1543 135.931L72.6261 151.46C72.5067 151.579 72.3872 151.639 72.2081 151.639L22.4582 151.639L22.4582 150.444L71.9692 150.444L87.3182 135.095Z" fill="#A30C33"/>
<path d="M77.6418 2.32828L101.71 26.3969C101.83 26.5164 101.89 26.6358 101.89 26.815L101.89 41.1487L100.695 41.1487L100.695 27.0539L76.8057 3.1644L77.6418 2.32828Z" fill="#A30C33"/>
<path d="M83.0779 31.953L83.9141 32.7891L68.0873 48.7354C67.9678 48.8548 67.8484 48.9146 67.6692 48.9146L7.52744 48.9146L7.52744 47.7201L67.3706 47.7201L83.0779 31.953Z" fill="#A30C33"/>
<path d="M27.2356 14.8702L53.9918 14.8702C54.171 14.8702 54.2904 14.9299 54.4099 15.0493L71.252 31.8914L70.4158 32.7275L53.7529 16.0646L27.2356 16.0646L27.2356 14.8702Z" fill="#A30C33"/>
<path d="M22.4558 148.294C20.9385 148.294 19.7085 149.524 19.7085 151.041C19.7085 152.559 20.9385 153.789 22.4558 153.789C23.9731 153.789 25.2031 152.559 25.2031 151.041C25.2031 149.524 23.9731 148.294 22.4558 148.294Z" fill="#A30C33"/>
<path d="M59.4847 129.183C62.9487 129.183 65.8154 131.99 65.8154 135.513C65.8154 139.037 63.0084 141.844 59.4847 141.844C55.961 141.844 53.154 139.037 53.154 135.513C53.154 131.99 56.0207 129.183 59.4847 129.183ZM59.4847 140.65C62.2917 140.65 64.621 138.32 64.621 135.513C64.621 132.706 62.2917 130.377 59.4847 130.377C56.6777 130.377 54.3485 132.706 54.3485 135.513C54.3485 138.32 56.6777 140.65 59.4847 140.65Z" fill="#A30C33"/>
<path d="M59.4871 132.767C57.9698 132.767 56.7398 133.997 56.7398 135.514C56.7398 137.031 57.9698 138.261 59.4871 138.261C61.0044 138.261 62.2344 137.031 62.2344 135.514C62.2344 133.997 61.0044 132.767 59.4871 132.767Z" fill="#A30C33"/>
<path d="M0.00150426 116.879C0.00150413 115.386 1.25571 114.132 2.7488 114.132C4.24189 114.132 5.49609 115.386 5.49609 116.879C5.49609 118.372 4.24189 119.626 2.7488 119.626C1.25571 119.626 0.00150439 118.432 0.00150426 116.879Z" fill="#A30C33"/>
<path d="M54.1121 99.9175C52.5948 99.9175 51.3648 101.148 51.3648 102.665C51.3648 104.182 52.5948 105.412 54.1121 105.412C55.6294 105.412 56.8594 104.182 56.8594 102.665C56.8594 101.148 55.6294 99.9175 54.1121 99.9175Z" fill="#A30C33"/>
<path d="M23.6517 80.2084C27.1157 80.2084 29.9824 83.0155 29.9824 86.5392C29.9824 90.0629 27.1754 92.8699 23.6517 92.8699C20.128 92.8699 17.321 90.0629 17.321 86.5392C17.321 83.0155 20.1877 80.2084 23.6517 80.2084ZM23.6517 91.6754C26.4587 91.6754 28.7879 89.3462 28.7879 86.5392C28.7879 83.7321 26.4587 81.4029 23.6517 81.4029C20.8447 81.4029 18.5155 83.7321 18.5155 86.5392C18.5155 89.3462 20.8447 91.6754 23.6517 91.6754Z" fill="#A30C33"/>
<path d="M23.655 83.7928C22.1378 83.7928 20.9078 85.0228 20.9078 86.5401C20.9078 88.0573 22.1378 89.2874 23.655 89.2874C25.1723 89.2874 26.4023 88.0573 26.4023 86.5401C26.4023 85.0228 25.1723 83.7928 23.655 83.7928Z" fill="#A30C33"/>
<path d="M77.406 67.6663C75.8887 67.6663 74.6587 68.8963 74.6587 70.4136C74.6587 71.9309 75.8887 73.1609 77.406 73.1609C78.9233 73.1609 80.1533 71.9309 80.1533 70.4136C80.1533 68.8963 78.9233 67.6663 77.406 67.6663Z" fill="#A30C33"/>
<path d="M7.52517 45.5684C6.00788 45.5684 4.77787 46.7984 4.77787 48.3157C4.77787 49.833 6.00788 51.063 7.52517 51.063C9.04245 51.063 10.2725 49.833 10.2725 48.3157C10.2725 46.7984 9.04245 45.5684 7.52517 45.5684Z" fill="#A30C33"/>
<path d="M42.1664 25.9787C45.6303 25.9787 48.4971 28.7857 48.4971 32.3094C48.4971 35.8331 45.6901 38.6401 42.1664 38.6401C38.6427 38.6401 35.8356 35.8331 35.8356 32.3094C35.8356 28.7857 38.7024 25.9787 42.1664 25.9787ZM42.1664 37.4457C44.9734 37.4457 47.3026 35.1165 47.3026 32.3094C47.3026 29.5024 44.9734 27.1732 42.1664 27.1732C39.3593 27.1732 37.0301 29.5024 37.0301 32.3094C37.0301 35.1165 39.3593 37.4457 42.1664 37.4457Z" fill="#A30C33"/>
<path d="M39.4195 32.3103C39.4195 30.8172 40.6737 29.563 42.1668 29.563C43.6599 29.563 44.9141 30.8172 44.9141 32.3103C44.9141 33.8034 43.6599 35.0576 42.1668 35.0576C40.6737 35.0576 39.4195 33.8034 39.4195 32.3103Z" fill="#A30C33"/>
<path d="M27.2351 12.7207C25.7178 12.7207 24.4878 13.9508 24.4878 15.468C24.4878 16.9853 25.7178 18.2153 27.2351 18.2153C28.7524 18.2153 29.9824 16.9853 29.9824 15.468C29.9824 13.9508 28.7524 12.7207 27.2351 12.7207Z" fill="#A30C33"/>
<path d="M74.4742 2.7476C74.4742 1.2545 75.7284 0.00030294 77.2215 0.00030281C78.7146 0.000302679 79.9687 1.2545 79.9687 2.7476C79.9687 4.24069 78.7146 5.49487 77.2215 5.49487C75.6687 5.43515 74.4742 4.24069 74.4742 2.7476Z" fill="#A30C33"/>
<g opacity="0.4">
<path d="M74.474 87.0855L130.554 87.0854L130.554 85.9956L74.474 85.9956L74.474 87.0855Z" fill="black"/>
<path d="M134.14 91.9143L135.334 91.9143L135.334 99.0812C135.334 99.2603 135.274 99.3798 135.155 99.4992L98.6039 135.931C98.4845 136.05 98.365 136.11 98.1858 136.11L64.86 136.11L64.86 134.915L97.9469 134.915L134.14 98.8423L134.14 91.9143Z" fill="black"/>
<path d="M47.5401 31.5935L92.3329 31.5935C92.5121 31.5935 92.6315 31.6532 92.751 31.7726L135.155 74.1765C135.274 74.2959 135.334 74.4154 135.334 74.5945L135.334 80.5669L134.14 80.5669L134.14 74.8334L92.094 32.7879L47.5401 32.7879L47.5401 31.5935Z" fill="black"/>
<path d="M77.4017 69.8166L101.411 69.8166C101.59 69.8166 101.709 69.8764 101.829 69.9958L117.954 86.0018L117.118 86.8379L101.172 71.0111L77.4017 71.0111L77.4017 69.8166Z" fill="black"/>
<path d="M94.0047 86.062L94.8408 86.8982L78.7751 103.083C78.6557 103.203 78.5362 103.262 78.3571 103.262L62.2689 103.262L62.2689 102.068L78.1182 102.068L94.0047 86.062Z" fill="black"/>
<path d="M2.74755 116.401L97.5888 116.401C97.768 116.401 97.8874 116.461 98.0069 116.581L107.503 126.196L106.667 127.032L97.3499 117.596L2.74755 117.596L2.74755 116.401Z" fill="black"/>
<path d="M87.3143 135.095L88.1504 135.931L72.6222 151.46C72.5028 151.579 72.3833 151.639 72.2042 151.639L22.4543 151.639L22.4543 150.444L71.9653 150.444L87.3143 135.095Z" fill="black"/>
<path d="M77.6408 2.32828L101.71 26.3969C101.829 26.5164 101.889 26.6358 101.889 26.815L101.889 41.1487L100.694 41.1487L100.694 27.0539L76.8047 3.1644L77.6408 2.32828Z" fill="black"/>
<path d="M83.077 31.953L83.9131 32.7891L68.0863 48.7354C67.9669 48.8548 67.8474 48.9146 67.6682 48.9146L7.52646 48.9146L7.52646 47.7201L67.3696 47.7201L83.077 31.953Z" fill="black"/>
<path d="M27.2346 14.8702L53.9908 14.8702C54.17 14.8702 54.2894 14.9299 54.4089 15.0493L71.251 31.8914L70.4148 32.7275L53.7519 16.0646L27.2346 16.0646L27.2346 14.8702Z" fill="black"/>
<path d="M22.4558 148.294C20.9385 148.294 19.7085 149.524 19.7085 151.041C19.7085 152.559 20.9385 153.789 22.4558 153.789C23.9731 153.789 25.2031 152.559 25.2031 151.041C25.2031 149.524 23.9731 148.294 22.4558 148.294Z" fill="black"/>
<path d="M59.4867 129.183C62.9506 129.183 65.8174 131.99 65.8174 135.513C65.8174 139.037 63.0104 141.844 59.4867 141.844C55.963 141.844 53.1559 139.037 53.1559 135.513C53.1559 131.99 56.0227 129.183 59.4867 129.183ZM59.4867 140.65C62.2937 140.65 64.6229 138.32 64.6229 135.513C64.6229 132.706 62.2937 130.377 59.4867 130.377C56.6797 130.377 54.3504 132.706 54.3504 135.513C54.3504 138.32 56.6797 140.65 59.4867 140.65Z" fill="black"/>
<path d="M0.000527695 116.879C0.000527565 115.386 1.25473 114.132 2.74782 114.132C4.24092 114.132 5.49512 115.386 5.49512 116.879C5.49512 118.372 4.24092 119.626 2.74782 119.626C1.25473 119.626 0.000527831 118.432 0.000527695 116.879Z" fill="black"/>
<path d="M62.2713 99.9175C60.754 99.9175 59.524 101.148 59.524 102.665C59.524 104.182 60.754 105.412 62.2713 105.412C63.7885 105.412 65.0186 104.182 65.0186 102.665C65.0186 101.148 63.7885 99.9175 62.2713 99.9175Z" fill="black"/>
<path d="M77.405 67.6663C75.8878 67.6663 74.6578 68.8963 74.6578 70.4136C74.6578 71.9309 75.8878 73.1609 77.405 73.1609C78.9223 73.1609 80.1523 71.9309 80.1523 70.4136C80.1523 68.8963 78.9223 67.6663 77.405 67.6663Z" fill="black"/>
<path d="M73.1707 84.0906C71.6534 84.0906 70.4234 85.3206 70.4234 86.8379C70.4234 88.3552 71.6534 89.5852 73.1707 89.5852C74.688 89.5852 75.918 88.3552 75.918 86.8379C75.918 85.3206 74.688 84.0906 73.1707 84.0906Z" fill="black"/>
<path d="M7.52517 45.5684C6.00788 45.5684 4.77787 46.7984 4.77787 48.3157C4.77787 49.833 6.00788 51.063 7.52517 51.063C9.04245 51.063 10.2725 49.833 10.2725 48.3157C10.2725 46.7984 9.04245 45.5684 7.52517 45.5684Z" fill="black"/>
<path d="M42.1644 25.9787C45.6284 25.9787 48.4951 28.7857 48.4951 32.3094C48.4951 35.8331 45.6881 38.6401 42.1644 38.6401C38.6407 38.6401 35.8337 35.8331 35.8337 32.3094C35.8337 28.7857 38.7004 25.9787 42.1644 25.9787ZM42.1644 37.4457C44.9714 37.4457 47.3006 35.1165 47.3006 32.3094C47.3006 29.5024 44.9714 27.1732 42.1644 27.1732C39.3574 27.1732 37.0282 29.5024 37.0282 32.3094C37.0282 35.1165 39.3574 37.4457 42.1644 37.4457Z" fill="black"/>
<path d="M27.2342 12.721C25.7169 12.721 24.4869 13.951 24.4869 15.4683C24.4869 16.9856 25.7169 18.2156 27.2342 18.2156C28.7514 18.2156 29.9814 16.9856 29.9814 15.4683C29.9814 13.951 28.7514 12.721 27.2342 12.721Z" fill="black"/>
<path d="M74.4742 2.7476C74.4742 1.2545 75.7284 0.00030294 77.2215 0.00030281C78.7146 0.000302679 79.9687 1.2545 79.9687 2.7476C79.9687 4.24069 78.7146 5.49487 77.2215 5.49487C75.6687 5.43515 74.4742 4.24069 74.4742 2.7476Z" fill="black"/>
</g>
</g>
</svg>
